<svg width="267" height="200" viewBox="0 0 267 200" fill="none" xmlns="http://www.w3.org/2000/svg">
<path d="M63.0265 181.186H13.2577V197.363H63.0265V181.186Z" fill="#E5EEF4"/>
<path d="M52.3425 151.453L50.92 147.642C59.207 144.549 65.2856 139.119 68.9949 131.508C70.3136 128.791 71.2637 125.91 71.8201 122.942H58.8966V118.875H76.2838L76.1659 121.025C76.1659 121.252 75.8162 126.667 72.7199 133.119C69.8594 139.08 64.0047 147.096 52.3425 151.453Z" fill="#E5EEF4"/>
<path d="M23.9414 151.453L25.3638 147.642C17.0768 144.549 11.0021 139.119 7.2889 131.508C5.97111 128.791 5.02229 125.91 4.46764 122.942H17.403V118.875H0L0.121808 121.025C0.121808 121.252 0.467596 126.667 3.56783 133.119C6.42445 139.08 12.2949 147.096 23.9414 151.453Z" fill="#E5EEF4"/>
<path d="M66.5077 197.363H9.78015V199.988H66.5077V197.363Z" fill="#D4E3ED"/>
<path d="M59.0183 185.202H17.2654V193.344H59.0183V185.202Z" fill="#D4E3ED"/>
<path d="M40.9789 159.308C40.9789 159.308 62.5391 154.785 62.5391 113.488H13.7605C13.7605 154.785 35.3168 159.308 35.3168 159.308C35.3168 174.573 20.0278 180.012 20.0278 180.012L19.1672 181.403L38.1419 181.187L57.1206 181.403L56.2561 180.012C56.2561 180.012 40.9789 174.573 40.9789 159.308Z" fill="#EFF5F9"/>
<path d="M38.5387 125.854L41.0102 130.868C41.0422 130.932 41.0893 130.987 41.1475 131.029C41.2057 131.071 41.2733 131.097 41.3442 131.107L46.8728 131.913C46.954 131.925 47.0303 131.959 47.093 132.012C47.1557 132.065 47.2024 132.134 47.2277 132.212C47.2531 132.29 47.2561 132.374 47.2364 132.454C47.2167 132.533 47.1752 132.606 47.1164 132.663L43.1124 136.565C43.0598 136.614 43.0206 136.676 42.9986 136.745C42.9766 136.814 42.9725 136.887 42.9867 136.958L43.9297 142.459C43.944 142.54 43.9352 142.623 43.9044 142.699C43.8736 142.775 43.822 142.84 43.7556 142.888C43.6891 142.936 43.6105 142.965 43.5287 142.97C43.447 142.975 43.3653 142.958 43.2932 142.919L38.3462 140.325C38.2851 140.295 38.2179 140.279 38.1497 140.279C38.0815 140.279 38.0142 140.295 37.9532 140.325L33.0062 142.927C32.9338 142.965 32.8521 142.982 32.7704 142.977C32.6886 142.971 32.61 142.943 32.5434 142.895C32.4769 142.848 32.425 142.782 32.3936 142.706C32.3622 142.631 32.3525 142.548 32.3657 142.467L33.3127 136.966C33.3248 136.895 33.3196 136.822 33.2977 136.754C33.2759 136.686 33.2379 136.624 33.187 136.573L29.183 132.671C29.1242 132.614 29.0827 132.541 29.063 132.462C29.0433 132.382 29.0463 132.298 29.0717 132.22C29.097 132.142 29.1437 132.073 29.2064 132.02C29.2691 131.967 29.3454 131.932 29.4266 131.921L34.9591 131.115C35.0295 131.105 35.0963 131.078 35.1539 131.036C35.2114 130.994 35.2578 130.939 35.2891 130.875L37.7646 125.862C37.8017 125.791 37.857 125.733 37.9247 125.691C37.9924 125.65 38.07 125.628 38.1493 125.627C38.2286 125.626 38.3067 125.647 38.3752 125.687C38.4438 125.727 38.5002 125.784 38.5387 125.854Z" fill="#D4E3ED"/>
<path d="M236.785 106.679L237.791 120.679L242.903 118.439L243.563 106.679H236.785Z" fill="#D4E3ED"/>
<path d="M240.781 66.8472L240.738 65.2204C240.781 65.4431 240.802 65.6695 240.801 65.8963C240.801 66.2303 240.797 66.5407 240.781 66.8472Z" fill="url(#paint0_linear_3_614)"/>
<path d="M266.993 112.156C266.993 112.156 238.231 124.325 237.791 120.679C237.728 120.16 238.246 119.315 239.504 118.07C241.217 116.376 241.983 114.973 241.971 113.861V113.755L240.981 75.1891C248.608 72.9887 266.097 67.9474 266.985 65.2204L266.993 112.156Z" fill="#E5EEF4"/>
<path d="M240.981 75.1891L240.781 66.8472L240.738 65.2204C239.559 58.906 222.223 59.6015 209.885 63.6998C195.287 68.5525 190.984 72.0575 190.984 72.0575L201.523 122.53C220.05 110.541 241.633 107.272 241.967 113.755L240.981 75.1891Z" fill="#EFF5F9"/>
<path d="M217.629 199.988L190.254 68.2263L191.641 67.9395L219.075 199.988H217.629Z" fill="#D4E3ED"/>
<path d="M102.001 130.502C99.7575 135.87 94.9009 148.498 93.9146 159.556C92.9794 170.059 88.6415 182.149 85.663 189.481L83.5726 200H90.9833L105.789 130.502H102.001Z" fill="#B3D0E2"/>
<path d="M102.001 130.502H98.3823L85.6512 189.481C88.6415 182.149 92.9794 170.059 93.9028 159.556C94.9009 148.487 99.7575 135.858 102.001 130.502Z" fill="#D0E2ED"/>
<path d="M141.569 131.339H134.139L141.734 167.045C145.361 176.475 149.723 185.882 154.772 193.501L141.569 131.339Z" fill="#84B3D0"/>
<path d="M156.151 199.988L154.772 193.505C149.723 185.906 140.465 153.453 136.854 144.035L148.756 199.988H156.151Z" fill="#B3D0E2"/>
<path d="M178.796 139.909L167.358 114.632H159.947L198.505 199.988H205.107C201.888 196.409 196.804 187.348 193.169 178.825C186.611 163.446 185.256 158.18 178.796 139.909Z" fill="#B3D0E2"/>
<path d="M174.532 130.502C180.992 148.773 186.611 163.457 193.169 178.833C196.804 187.355 201.888 196.416 205.106 199.996H205.975L174.532 130.502Z" fill="#D0E2ED"/>
<path d="M171.045 111.535C191.815 84.0326 191.593 48.8554 170.551 32.9641C149.508 17.0729 115.613 26.4852 94.8435 53.9872C74.0741 81.4892 74.2955 116.666 95.3381 132.558C116.381 148.449 150.276 139.037 171.045 111.535Z" fill="#D0E2ED"/>
<path d="M164.662 107.344C185.432 79.8421 185.21 44.6649 164.168 28.7737C143.125 12.8824 109.23 22.2948 88.4607 49.7967C67.6913 77.2987 67.9127 112.476 88.9553 128.367C109.998 144.258 143.893 134.846 164.662 107.344Z" fill="#EDF4F9"/>
<path d="M158.613 102.145C176.494 78.4671 176.303 48.1803 158.185 34.4979C140.068 20.8155 110.885 28.9188 93.0029 52.5971C75.1212 76.2754 75.3123 106.562 93.4299 120.245C111.548 133.927 140.731 125.824 158.613 102.145Z" fill="#FA4803"/>
<path d="M152.295 97.5842C166.733 78.4656 166.579 54.0115 151.951 42.9644C137.323 31.9173 113.76 38.4605 99.3214 57.579C84.8831 76.6976 85.037 101.152 99.6652 112.199C114.293 123.246 137.856 116.703 152.295 97.5842Z" fill="#EDF4F9"/>
<path d="M145.418 93.313C156.752 78.3057 156.631 59.1096 145.147 50.4375C133.664 41.7654 115.167 46.9011 103.834 61.9085C92.5004 76.9159 92.6218 96.1119 104.105 104.784C115.588 113.456 134.085 108.32 145.418 93.313Z" fill="#FA4803"/>
<path d="M138.374 88.3517C146.302 77.8538 146.218 64.4264 138.186 58.3607C130.154 52.2951 117.216 55.8881 109.288 66.386C101.36 76.8839 101.444 90.3113 109.476 96.377C117.508 102.443 130.446 98.8496 138.374 88.3517Z" fill="#EDF4F9"/>
<path d="M131.005 82.7862C135.414 76.9485 135.366 69.4808 130.898 66.1066C126.43 62.7325 119.234 64.7296 114.826 70.5673C110.417 76.405 110.465 83.8728 114.933 87.2469C119.401 90.6211 126.597 88.624 131.005 82.7862Z" fill="#FA4803"/>
<path fill-rule="evenodd" clip-rule="evenodd" d="M118.771 74.7962L33.9414 15.6402L34.8805 14.485L119.715 73.6449L118.771 74.7962Z" fill="#002272"/>
<path fill-rule="evenodd" clip-rule="evenodd" d="M60.3385 33.0904L48.5466 17.7857L38.1339 17.6796L60.3385 33.0904Z" fill="#007DFF"/>
<path fill-rule="evenodd" clip-rule="evenodd" d="M60.3268 33.1061L41.8747 27.3889L38.1418 17.6638L60.3268 33.1061Z" fill="#1757D9"/>
<path fill-rule="evenodd" clip-rule="evenodd" d="M123.357 77.0555L118.386 68.6743L113.773 75.2873L123.357 77.0555Z" fill="#1D2141"/>
<g opacity="0.2">
<path opacity="0.2" d="M164.725 107.425C184.945 80.6509 185.263 46.6033 165.849 30.1591C146.988 31.9195 134.021 43.5777 136.332 62.4699C139.742 90.5331 132.614 106.608 105.789 111.009C92.0364 113.268 92.2682 119.7 92.5197 130.769C113.671 143.257 145.066 133.445 164.725 107.425Z" fill="white"/>
</g>
<defs>
<linearGradient id="paint0_linear_3_614" x1="240.608" y1="66.0653" x2="240.907" y2="66.0025" gradientUnits="userSpaceOnUse">
<stop stop-color="#BA0101"/>
<stop offset="0.03" stop-color="#BF0403"/>
<stop offset="0.06" stop-color="#CD0D0A"/>
<stop offset="0.09" stop-color="#E51D15"/>
<stop offset="0.12" stop-color="#FF2E21"/>
<stop offset="0.29" stop-color="#FF8A85"/>
<stop offset="0.37" stop-color="#FC6059"/>
<stop offset="0.46" stop-color="#F9352C"/>
<stop offset="0.5" stop-color="#F8241A"/>
<stop offset="0.7" stop-color="#E7241A"/>
<stop offset="0.83" stop-color="#EE271C"/>
<stop offset="0.99" stop-color="#FF2E21"/>
</linearGradient>
</defs>
</svg>
